<svg width="20" height="20" viewBox="0 0 20 20" fill="none" xmlns="http://www.w3.org/2000/svg">
<path d="M12.5 18.9582H7.49996C2.97496 18.9582 1.04163 17.0248 1.04163 12.4998V7.49984C1.04163 2.97484 2.97496 1.0415 7.49996 1.0415H11.6666C12.0083 1.0415 12.2916 1.32484 12.2916 1.6665C12.2916 2.00817 12.0083 2.2915 11.6666 2.2915H7.49996C3.65829 2.2915 2.29163 3.65817 2.29163 7.49984V12.4998C2.29163 16.3415 3.65829 17.7082 7.49996 17.7082H12.5C16.3416 17.7082 17.7083 16.3415 17.7083 12.4998V8.33317C17.7083 7.9915 17.9916 7.70817 18.3333 7.70817C18.675 7.70817 18.9583 7.9915 18.9583 8.33317V12.4998C18.9583 17.0248 17.025 18.9582 12.5 18.9582Z" fill="#358B67"/>
<path d="M18.3333 8.95841H15C12.15 8.95841 11.0416 7.85007 11.0416 5.00007V1.66674C11.0416 1.41674 11.1916 1.18341 11.425 1.09174C11.6583 0.991739 11.925 1.05007 12.1083 1.22507L18.775 7.89174C18.95 8.06674 19.0083 8.34174 18.9083 8.57507C18.8083 8.8084 18.5833 8.95841 18.3333 8.95841ZM12.2916 3.17507V5.00007C12.2916 7.15007 12.85 7.70841 15 7.70841H16.825L12.2916 3.17507Z" fill="#358B67"/>
</svg>
